# AST/ASF file generated using VICON BodyLanguage
# -----------------------------------------------
:version 1.10
:name VICON
:units
  mass 1.0
  length 0.45
  angle deg
:documentation
   .ast/.asf automatically generated from VICON data using
   VICON BodyBuilder and BodyLanguage model FoxedUp or BRILLIANT.MOD
:root
   order TX TY TZ RX RY RZ
   axis XYZ
   position 0 0 0  
   orientation 0 0 0 
:bonedata
  begin
     id 1 
     name lhipjoint
     direction 0.611823 -0.767273 0.19226 
     length 2.47422 
     axis 0 0 0  XYZ
  end
  begin
     id 2 
     name lfemur
     direction 0.34202 -0.939693 0  
     length 7.40835  
     axis 0 0 20  XYZ
    dof rx ry rz
    limits (-160.0 20.0)
           (-70.0 70.0)
           (-60.0 70.0)
  end
  begin
     id 3 
     name ltibia
     direction 0.34202 -0.939693 0   
     length 8.03679   
     axis 0 0 20   XYZ
    dof rx
    limits (-10.0 170.0)
  end
  begin
     id 4 
     name lfoot
     direction 0.0883598 -0.242766 0.966052   
     length 2.06694   
     axis -90 7.62852e-016 20   XYZ
    dof rx rz
    limits (-45.0 90.0)
           (-70.0 20.0)
  end
  begin
     id 5 
     name ltoes
     direction 1.53617e-011 -4.21699e-011 1   
     length 1.03711   
     axis -90 7.62852e-016 20   XYZ
    dof rx
    limits (-90.0 20.0)
  end
  begin
     id 6 
     name rhipjoint
     direction -0.590066 -0.783143 0.196236   
     length 2.42408  
     axis 0 0 0  XYZ 
  end
  begin
     id 7 
     name rfemur
     direction -0.34202 -0.939693 0   
     length 7.88987   
     axis 0 0 -20   XYZ
    dof rx ry rz
    limits (-160.0 20.0)
           (-70.0 70.0)
           (-70.0 60.0)
  end
  begin
     id 8 
     name rtibia
     direction -0.34202 -0.939693 0   
     length 7.87584   
     axis 0 0 -20   XYZ
    dof rx
    limits (-10.0 170.0)
 end
 begin
     id 9 
     name rfoot
     direction -0.130476 -0.358481 0.924374   
     length 2.21745  
     axis -90 -7.62852e-016 -20   XYZ
    dof rx rz
    limits (-45.0 90.0)
           (-20.0 70.0)
  end
  begin
     id 10 
     name rtoes
     direction 8.20695e-005 8.89091e-005 1   
     length 1.09536   
     axis -90 -7.62852e-016 -20   XYZ
    dof rx
    limits (-90.0 20.0)
  end
  begin
     id 11 
     name lowerback
     direction 0.00981224 0.999875 -0.0124197   
     length 1.94808   
     axis 0 0 0   XYZ
    dof rx ry rz
    limits (-20.0 45.0)
           (-30.0 30.0)
           (-30.0 30.0)
  end
  begin
     id 12 
     name upperback
     direction 0.038911 0.999194 0.00981686   
     length 1.94415   
     axis 0 0 0   XYZ
    dof rx ry rz
    limits (-20.0 45.0)
           (-30.0 30.0)
           (-30.0 30.0)
  end
  begin
     id 13 
     name thorax
     direction 0.0330692 0.999334 0.0154389   
     length 1.94117   
     axis 0 0 0   XYZ
    dof rx ry rz
    limits (-20.0 45.0)
           (-30.0 30.0)
           (-30.0 30.0)
  end
  begin
     id 14 
     name lowerneck
     direction -0.0374305 0.99415 0.10132   
     length 1.87291   
     axis 0 0 0   XYZ
    dof rx ry rz
    limits (-20.0 45.0)
           (-30.0 30.0)
           (-30.0 30.0)
  end
  begin
     id 15 
     name upperneck
     direction 0.0120692 0.985979 -0.166431   
     length 1.89248   
     axis 0 0 0   XYZ
    dof rx ry rz
    limits (-20.0 45.0)
           (-30.0 30.0)
           (-30.0 30.0)
  end
  begin
     id 16
     name head
     direction 0.00629908 0.997708 -0.06737  
     length 1.90559  
     axis 0 0 0   XYZ
    dof rx ry rz
    limits (-20.0 45.0)
           (-30.0 30.0)
           (-30.0 30.0)
  end
  begin
     id 17 
     name lclavicle
     direction 0.961536 0.27308 -0.0295863  
     length 3.52757  
     axis 0 0 0   XYZ
    dof ry rz
    limits (-20.0 10.0)
           (0.0 20.0)
  end
  begin
     id 18 
     name lhumerus
     direction 1 -4.48969e-011 2.61153e-029   
     length 5.14845   
     axis 180 -30 -90   XYZ
    dof rx ry rz
    limits (-60.0 90.0)
           (-90.0 90.0)
           (-90.0 90.0)
  end
  begin
     id 19
     name lradius
     direction 1 -4.4896e-011 -3.37549e-027   
     length 3.43674   
     axis 180 -30 -90   XYZ
    dof rx
    limits (-10.0 170.0)
  end
  begin
     id 20
     name lwrist
     direction 1 -4.48969e-011 2.56952e-028   
     length 1.71837   
     axis -5.12785e-016 90 90   XYZ
    dof ry
    limits (-180.0 0.0)
 end
  begin
     id 21 
     name lhand
     direction 1 -4.49094e-011 5.13905e-028   
     length 0.588709   
     axis -3.27915e-016 90 90   XYZ
    dof rx rz
    limits (-90.0 90.0)
           (-45.0 45.0)
  end
  begin
     id 22 
     name lfingers
     direction 1 -4.48821e-011 1.02781e-027   
     length 0.474633   
     axis -6.5583e-016 90 90   XYZ
    dof rx
    limits (0.0 90.0)
  end
  begin
     id 23
     name lthumb
     direction 0.707107 -6.34922e-011 0.707107   
     length 0.68148   
     axis -90 45 2.85299e-015   XYZ
    dof rx rz
    limits (-45.0 45.0)
           (-45.0 45.0)
  end
  begin
     id 24 
     name rclavicle
     direction -0.940964 0.333844 -0.0559866   
     length 3.55948  
     axis 0 0 0   XYZ 
    dof ry rz
    limits (-10.0 20.0)
           (-20.0 0.0)
  end
  begin
     id 25 
     name rhumerus
     direction -1 -4.48973e-011 3.15259e-027  
     length 5.42185   
     axis 180 30 90   XYZ
    dof rx ry rz
    limits (-90.0 60.0)
           (-90.0 90.0)
           (-90.0 90.0)
  end
  begin
     id 26 
     name rradius
     direction -1 -4.48954e-011 -2.56271e-027   
     length 3.51317   
     axis 180 30 90   XYZ
    dof rx
    limits (-10.0 170.0)
  end
  begin
     id 27 
     name rwrist
     direction -1 -4.48943e-011 2.56952e-028   
     length 1.75658   
     axis -5.12785e-016 -90 -90   XYZ
    dof ry
    limits (-180.0 0.0)
  end
  begin
     id 28
     name rhand
     direction -1 -4.4912e-011 5.13905e-028   
     length 0.663187   
     axis -3.27915e-016 -90 -90   XYZ
    dof rx rz
    limits (-90.0 90.0)
           (-45.0 45.0)
  end
  begin
     id 29
     name rfingers
     direction -1 -4.48914e-011 1.02781e-027   
     length 0.534679   
     axis -6.5583e-016 -90 -90   XYZ
    dof rx
    limits (0.0 90.0)
  end
  begin
     id 30
     name rthumb
     direction -0.707107 -6.35033e-011 0.707107   
     length 0.767695   
     axis -90 -45 -2.85299e-015   XYZ
    dof rx rz
    limits (-45.0 45.0)
           (-45.0 45.0)
  end
:hierarchy
  begin
    root lhipjoint rhipjoint lowerback
    lhipjoint lfemur
    lfemur ltibia
    ltibia lfoot
    lfoot ltoes
    rhipjoint rfemur
    rfemur rtibia
    rtibia rfoot
    rfoot rtoes
    lowerback upperback
    upperback thorax
    thorax lowerneck lclavicle rclavicle
    lowerneck upperneck
    upperneck head
    lclavicle lhumerus
    lhumerus lradius
    lradius lwrist
    lwrist lhand lthumb
    lhand lfingers
    rclavicle rhumerus
    rhumerus rradius
    rradius rwrist
    rwrist rhand rthumb
    rhand rfingers
  end

#!OML:ASF F:\VICON\USERDATA\INSTALL\Justin_a\Justin_a.ASF
:FULLY-SPECIFIED
:DEGREES
323
root -2.91516 24.594 -4.46462 -280.164 -87.5917 293.828
lowerback 5.9393 0.843016 0.19315
upperback 1.68245 1.12834 3.26268
thorax -1.65893 0.532564 3.17288
lowerneck -8.59421 0.494184 -3.98445
upperneck 41.8262 -0.202502 -1.5747
head 16.505 -1.61902 -0.217718
rclavicle -1.98785e-015 -1.51076e-014
rhumerus -30.0363 -3.08268 -82.0406
rradius 41.8657
rwrist -3.38189
rhand -27.1357 14.9449
rfingers 7.12502
rthumb -0.55116 -15.0341
lclavicle -1.98785e-015 -1.51076e-014
lhumerus -35.4271 4.5152 86.294
lradius 41.7477
lwrist 5.58215
lhand -18.8982 23.4432
lfingers 7.12502
lthumb 7.40344 53.2937
rfemur -37.1051 2.6083 25.931
rtibia 48.3132
rfoot -25.2503 -9.74013
rtoes -0.78971
lfemur -46.7025 8.5117 -22.0254
ltibia 64.2912
lfoot -24.9954 -10.2172
ltoes -22.4682
324
root -2.91449 24.6126 -4.44921 -285.672 -87.5666 299.364
lowerback 5.85022 0.783144 0.504852
upperback 1.73916 1.0612 3.16131
thorax -1.53962 0.497569 2.89792
lowerneck -8.6511 0.507788 -3.81674
upperneck 41.8103 -0.236478 -1.51039
head 16.5086 -1.59459 -0.22381
rclavicle 9.93923e-016 -7.95139e-015
rhumerus -29.9226 -2.96835 -82.1213
rradius 41.946
rwrist -3.3795
rhand -27.4679 14.8666
rfingers 7.12502
rthumb -0.871996 -15.1114
lclavicle 9.93923e-016 -7.95139e-015
lhumerus -35.5769 4.08758 86.2371
lradius 41.8819
lwrist 5.87949
lhand -18.5321 23.4874
lfingers 7.12502
lthumb 7.75674 53.3252
rfemur -37.0102 2.5423 25.7884
rtibia 48.0798
rfoot -25.1124 -9.84946
rtoes -0.847098
lfemur -47.471 8.60131 -21.912
ltibia 65.8868
lfoot -24.7761 -8.95401
ltoes -21.0788
325
root -2.91484 24.6362 -4.42958 -292.345 -87.6914 305.891
lowerback 5.96971 0.739527 0.621516
upperback 1.82503 1.00765 3.06303
thorax -1.51151 0.469898 2.7335
lowerneck -8.66417 0.491095 -3.76758
upperneck 41.7358 -0.254925 -1.51994
head 16.4705 -1.58986 -0.237025
rclavicle -4.57205e-015 -3.10104e-014
rhumerus -29.8436 -2.61221 -82.1281
rradius 42.0847
rwrist -3.56048
rhand -27.7495 14.7183
rfingers 7.12502
rthumb -1.14395 -15.2584
lclavicle -4.57205e-015 -3.10104e-014
lhumerus -35.7066 3.87383 86.2225
lradius 41.9536
lwrist 6.09431
lhand -18.2699 23.5043
lfingers 7.12502
lthumb 8.00986 53.3325
rfemur -36.7143 2.33802 25.4489
rtibia 47.8282
rfoot -25.028 -9.60857
rtoes -0.181978
lfemur -47.9811 8.65121 -21.9655
ltibia 67.4656
lfoot -24.5518 -7.57003
ltoes -20.6495
326
root -2.90976 24.6536 -4.41228 -297.337 -87.8626 310.96
lowerback 5.91775 0.785766 0.59971
upperback 1.8356 1.06668 3.00201
thorax -1.47351 0.499883 2.67889
lowerneck -8.66981 0.418813 -3.78313
upperneck 41.6379 -0.354379 -1.4853
head 16.4193 -1.62062 -0.230488
rclavicle -8.54774e-015 4.77083e-015
rhumerus -29.8037 -2.59589 -81.9954
rradius 42.2549
rwrist -3.88203
rhand -27.6614 14.8167
rfingers 7.12502
rthumb -1.05892 -15.1604
lclavicle -8.54774e-015 4.77083e-015
lhumerus -35.7312 3.77639 86.2778
lradius 41.8719
lwrist 6.21109
lhand -18.4858 23.4748
lfingers 7.12502
lthumb 7.80146 53.3109
rfemur -36.6771 2.22359 25.0988
rtibia 47.5951
rfoot -25.0008 -9.47037
rtoes -0.144699
lfemur -48.7584 8.82988 -22.0621
ltibia 69.0678
lfoot -24.286 -5.89932
ltoes -20.5024
327
root -2.90767 24.673 -4.38997 -302.173 -87.8758 315.821
lowerback 5.85492 0.811604 0.723926
upperback 1.8766 1.10418 3.0337
thorax -1.39614 0.517333 2.63995
lowerneck -8.70193 0.350033 -3.86703
upperneck 41.6395 -0.42966 -1.48457
head 16.4304 -1.661 -0.226076
rclavicle -2.38542e-015 -3.10104e-014
rhumerus -29.6231 -2.88486 -81.8153
rradius 42.3167
rwrist -3.94065
rhand -27.7463 14.866
rfingers 7.12502
rthumb -1.1409 -15.1106
lclavicle -2.38542e-015 -3.10104e-014
lhumerus -35.7695 3.57969 86.4567
lradius 41.7766
lwrist 6.53633
lhand -18.9594 23.5114
lfingers 7.12502
lthumb 7.34436 53.364
rfemur -36.5833 1.95057 24.9348
rtibia 47.3682
rfoot -24.8956 -9.55095
rtoes -0.96311
lfemur -49.4505 8.96648 -21.9756
ltibia 70.6464
lfoot -23.8077 -4.566
ltoes -18.2893
328
root -2.90417 24.691 -4.36555 -307.257 -87.9031 320.912
lowerback 5.8748 0.828036 0.871816
upperback 1.89463 1.13323 3.0484
thorax -1.3872 0.531073 2.56973
lowerneck -8.69917 0.30251 -4.04432
upperneck 41.6179 -0.47688 -1.41427
head 16.4204 -1.69492 -0.168783
rclavicle 3.18055e-015 3.97569e-015
rhumerus -29.4807 -3.0864 -81.6751
rradius 42.3417
rwrist -3.59757
rhand -27.9063 14.6862
rfingers 7.12502
rthumb -1.29544 -15.2896
lclavicle 3.18055e-015 3.97569e-015
lhumerus -35.9072 3.464 86.5853
lradius 41.8009
lwrist 6.79177
lhand -19.3103 23.6231
lfingers 7.12502
lthumb 7.00565 53.4872
rfemur -36.4889 1.70587 24.7294
rtibia 47.1946
rfoot -24.89 -9.58287
rtoes -1.44393
lfemur -50.1095 9.03227 -21.886
ltibia 72.1872
lfoot -23.3558 -3.10551
ltoes -17.2019
329
root -2.89898 24.7151 -4.33722 -316.782 -88.1134 330.483
lowerback 5.93582 0.817227 0.810056
upperback 1.86201 1.11911 2.93171
thorax -1.45316 0.525842 2.48388
lowerneck -8.69688 0.29447 -4.01857
upperneck 41.6327 -0.476556 -1.46411
head 16.428 -1.69686 -0.195566
rclavicle 1.70955e-014 3.10104e-014
rhumerus -29.4864 -2.96023 -81.5944
rradius 42.5255
rwrist -3.62905
rhand -27.8055 14.4582
rfingers 7.12502
rthumb -1.19804 -15.5182
lclavicle 1.70955e-014 3.10104e-014
lhumerus -36.0991 3.55075 86.4899
lradius 41.8158
lwrist 6.80141
lhand -19.1516 23.7111
lfingers 7.12502
lthumb 7.1588 53.57
rfemur -36.4643 1.56213 24.1905
rtibia 47.0549
rfoot -24.8662 -9.44515
rtoes 0.219493
lfemur -50.7427 9.07862 -22.0541
ltibia 73.635
lfoot -22.7962 -1.64961
ltoes -16.4926
330
root -2.89344 24.7344 -4.30874 -332.135 -88.2927 345.882
lowerback 5.95014 0.798129 0.650674
upperback 1.86804 1.08557 2.77977
thorax -1.45381 0.510892 2.41876
lowerneck -8.70533 0.299936 -4.06439
upperneck 41.6651 -0.482244 -1.40185
head 16.4482 -1.69797 -0.161074
rclavicle -1.98785e-015 -7.95139e-016
rhumerus -29.3076 -2.91189 -81.5755
rradius 42.5803
rwrist -3.77095
rhand -27.7327 14.5332
rfingers 7.12502
rthumb -1.1277 -15.4436
lclavicle -1.98785e-015 -7.95139e-016
lhumerus -36.1345 3.81292 86.3744
lradius 41.6776
lwrist 6.65431
lhand -18.9573 23.7351
lfingers 7.12502
lthumb 7.34639 53.5875
rfemur -36.4846 1.33934 23.5206
rtibia 46.9745
rfoot -24.7624 -9.44496
rtoes 0.112969
lfemur -51.3158 9.11517 -22.3279
ltibia 75.0096
lfoot -22.2476 -0.662403
ltoes -15.2271
331
root -2.88853 24.749 -4.28404 -342.841 -88.3291 356.589
lowerback 6.03935 0.828819 0.543821
upperback 1.85772 1.12276 2.76148
thorax -1.51725 0.530042 2.45624
lowerneck -8.68194 0.240082 -4.14174
upperneck 41.6605 -0.539553 -1.43792
head 16.4421 -1.7364 -0.171237
rclavicle 2.78299e-015 9.54166e-015
rhumerus -29.1326 -2.94721 -81.398
rradius 42.5634
rwrist -3.71625
rhand -27.5405 14.6825
rfingers 7.12502
rthumb -0.94215 -15.2952
lclavicle 2.78299e-015 9.54166e-015
lhumerus -36.1787 4.01484 86.4043
lradius 41.4609
lwrist 6.41236
lhand -18.961 23.9224
lfingers 7.12502
lthumb 7.34276 53.775
rfemur -36.4571 1.10958 23.1055
rtibia 46.8874
rfoot -24.7029 -9.28449
rtoes -0.71448
lfemur -51.8364 9.26068 -22.3153
ltibia 76.357
lfoot -21.859 0.213812
ltoes -15.4003
332
root -2.88599 24.7639 -4.25328 -352.046 -88.4104 365.823
lowerback 6.06545 0.950214 0.53543
upperback 1.8537 1.28435 2.79276
thorax -1.54315 0.61045 2.48102
lowerneck -8.67181 0.111548 -4.36439
upperneck 41.6632 -0.666772 -1.45869
head 16.4469 -1.82273 -0.159211
rclavicle -3.97569e-015 -1.19271e-014
rhumerus -29.1141 -2.94099 -80.9983
rradius 42.7516
rwrist -3.65208
rhand -27.5285 14.7864
rfingers 7.12502
rthumb -0.930557 -15.1913
lclavicle -3.97569e-015 -1.19271e-014
lhumerus -36.206 4.1222 86.6005
lradius 41.2496
lwrist 6.02875
lhand -18.7165 23.8041
lfingers 7.12502
lthumb 7.57879 53.6483
rfemur -36.4582 0.920544 22.7018
rtibia 46.786
rfoot -24.6807 -8.84566
rtoes -0.730875
lfemur -52.3364 9.32696 -22.1877
ltibia 77.6531
lfoot -21.5389 0.780177
ltoes -14.4997
333
root -2.88702 24.7809 -4.22388 -349.071 -88.5594 362.798
lowerback 6.08275 1.03253 0.740837
upperback 1.90053 1.40265 2.94966
thorax -1.50815 0.666567 2.51907
lowerneck -8.60758 0.0498907 -4.51292
upperneck 41.6119 -0.659166 -1.62586
head 16.406 -1.86151 -0.203041
rclavicle 7.15625e-015 5.56597e-015
rhumerus -29.0344 -2.85846 -80.6639
rradius 42.9604
rwrist -3.42668
rhand -27.5171 14.5924
rfingers 7.12502
rthumb -0.91956 -15.3854
lclavicle 7.15625e-015 5.56597e-015
lhumerus -36.3113 4.3077 86.7523
lradius 41.1182
lwrist 5.89369
lhand -18.3797 23.7581
lfingers 7.12502
lthumb 7.90389 53.5904
rfemur -36.3434 0.972668 22.6363
rtibia 46.6618
rfoot -24.7075 -8.42611
rtoes 0.605111
lfemur -52.7446 9.52687 -21.6163
ltibia 78.8991
lfoot -21.1924 0.921808
ltoes -12.4835
334
root -2.88649 24.7916 -4.19254 -345.984 -88.6951 359.602
lowerback 6.17823 1.08422 1.04076
upperback 1.95314 1.48679 2.99463
thorax -1.50382 0.706273 2.38958
lowerneck -8.59805 0.0215794 -4.59597
upperneck 41.6547 -0.672325 -1.66874
head 16.429 -1.88692 -0.210253
rclavicle -2.22639e-014 -3.4191e-014
rhumerus -29.0333 -2.5 -80.554
rradius 43.2445
rwrist -3.70863
rhand -27.4384 14.4606
rfingers 7.12502
rthumb -0.843505 -15.5175
lclavicle -2.22639e-014 -3.4191e-014
lhumerus -36.4513 4.41735 86.6792
lradius 41.0365
lwrist 5.87035
lhand -18.055 23.5667
lfingers 7.12502
lthumb 8.21728 53.3869
rfemur -36.1756 1.04196 22.5507
rtibia 46.5408
rfoot -24.7052 -8.12847
rtoes 1.48048
lfemur -53.0534 9.68851 -21.0366
ltibia 80.0743
lfoot -20.9338 1.16601
ltoes -12.2454
335
root -2.88326 24.8048 -4.15871 -357.338 -88.7695 370.942
lowerback 6.24667 1.02775 1.00856
upperback 1.94439 1.41199 2.96899
thorax -1.5485 0.669295 2.38564
lowerneck -8.56066 0.0616402 -4.70076
upperneck 41.6578 -0.572666 -1.72864
head 16.4217 -1.87232 -0.202769
rclavicle -2.8625e-014 -3.10104e-014
rhumerus -28.948 -2.05374 -80.5996
rradius 43.4397
rwrist -4.04194
rhand -27.2898 14.5935
rfingers 7.12502
rthumb -0.699995 -15.3851
lclavicle -2.8625e-014 -3.10104e-014
lhumerus -36.698 4.7488 86.5194
lradius 40.9807
lwrist 5.87108
lhand -17.9639 23.6775
lfingers 7.12502
lthumb 8.30513 53.4942
rfemur -36.1674 1.06684 22.0898
rtibia 46.468
rfoot -24.6916 -7.90111
rtoes 2.01806
lfemur -53.3319 9.7259 -20.8045
ltibia 81.0484
lfoot -20.7195 1.29296
ltoes -12.2484
336
root -2.87606 24.811 -4.13153 -349.196 -88.838 362.74
lowerback 6.37604 0.977382 1.20191
upperback 1.9325 1.35933 3.14364
thorax -1.63047 0.640514 2.45968
lowerneck -8.45379 0.120719 -4.78469
upperneck 41.6252 -0.43019 -1.85443
head 16.3769 -1.84488 -0.220098
rclavicle -2.38542e-015 1.27222e-014
rhumerus -28.7965 -1.77323 -80.5456
rradius 43.5147
rwrist -4.01026
rhand -27.4437 14.5645
rfingers 7.12502
rthumb -0.848586 -15.4136
lclavicle -2.38542e-015 1.27222e-014
lhumerus -36.9822 5.10493 86.4653
lradius 40.9172
lwrist 5.91588
lhand -18.1373 23.742
lfingers 7.12502
lthumb 8.13779 53.5653
rfemur -36.1567 1.30557 22.083
rtibia 46.5016
rfoot -24.8367 -7.51824
rtoes 4.15486
lfemur -53.6458 9.93889 -20.0068
ltibia 81.9773
lfoot -20.4159 1.03048
ltoes -12.3144
